<svg id="Layer_1" data-name="Layer 1" xmlns="http://www.w3.org/2000/svg" viewBox="0 0 1920 571"><defs><style>.cls-1{fill:#fff;}.cls-2{fill:#231f20;}</style></defs><rect class="cls-1" width="1920" height="571"/><path class="cls-2" d="M1374.84,214.46c-15.28,0-26.84,6-34.3,16.36V217.91H1313.8v113h26.74V269.28c0-16.41,13.35-28.08,29.76-28.08s29.76,11.67,29.76,28.08v61.63h26.74v-65C1426.8,234.76,1403.49,214.46,1374.84,214.46Z"/><path class="cls-2" d="M968.24,214.46c-15.28,0-26.84,6-34.3,16.36V217.91H907.2v113h26.74v-56.5c0-20.74,13.35-33.21,29.76-33.21s28.08,11.67,28.08,28.08v15.05h28.42V265.92C1020.2,234.76,996.89,214.46,968.24,214.46Z"/><path class="cls-2" d="M1120,214.46a31.67,31.67,0,0,0-23.16,10.36,31.66,31.66,0,0,0-23.15-10.36,30.69,30.69,0,0,0-14.08,3.45h-19.35v113h26.9V251.07a9.86,9.86,0,0,1,19.58-1.67h0v34.93h20.06V251.07h.16c0-.5,0-1,0-1.5a9.86,9.86,0,0,1,19.61,1.5v79.84h26.74V251.07C1153.21,230.88,1138.29,214.46,1120,214.46Z"/><path class="cls-2" d="M1262.84,225.3a52.69,52.69,0,0,0-31.51-10.84c-32.11,0-58.23,26.9-58.23,60s26.12,59.95,58.23,59.95c14.61,0,28-6.45,38.2-16.58v13.13h20V272.69h0v0l0,0V217.91h-26.74Zm-31.51,82.32c-17.39,0-31.53-14.9-31.53-33.21s14.14-33.21,31.53-33.21,31.52,14.9,31.52,33.21S1248.71,307.62,1231.33,307.62Zm58.16-34.93h-.22c0-.06,0-.11,0-.16l.24.11Z"/><path class="cls-2" d="M703.7,214.46c-14.72,0-26.42,5.6-34.33,15.25v-11.8H642.63V382.67h26.74V319.11c7.91,9.66,19.61,15.25,34.33,15.25,30.55,0,55.41-22.52,55.41-59.95S734.25,214.46,703.7,214.46Zm-2.81,93.16c-17.36,0-31.49-14.9-31.49-33.21s14.13-33.21,31.49-33.21,31.48,14.9,31.48,33.21S718.25,307.62,700.89,307.62Z"/><path class="cls-2" d="M1776.74,242.78V217.91h-32.35V185.57h-26.74v32.34h-21.56v24.87h21.56v58.16h0a30,30,0,0,0,30,29.95H1761v-25c-8.69,0-16.6-5.66-16.6-18.28V242.78Z"/><path class="cls-2" d="M834.45,214.46a60,60,0,0,0,0,119.9c23.42,0,36.23-12.18,46.68-20l-15.56-20.7s-13.4,14-31.12,14a30.39,30.39,0,0,1-19.05-6.77l66.08-38.15,6.69-3.86C888.17,247.54,873.29,214.46,834.45,214.46ZM803,277.11c-.07-.89-.11-1.79-.11-2.7,0-18.31,14.14-33.21,31.52-33.21a33.29,33.29,0,0,1,19.63,6.44Z"/><path class="cls-2" d="M1502.55,214.46a60,60,0,0,0,0,119.9c23.41,0,36.23-12.18,46.67-20l-15.56-20.7s-13.39,14-31.11,14a30.39,30.39,0,0,1-19-6.77l66.08-38.15,6.69-3.86C1556.27,247.54,1541.39,214.46,1502.55,214.46Zm-31.41,62.65c-.07-.89-.12-1.79-.12-2.7,0-18.31,14.15-33.21,31.53-33.21a33.29,33.29,0,0,1,19.63,6.44Z"/><path class="cls-2" d="M1633.29,214.46c-15.28,0-26.84,6-34.3,16.36V217.91h-26.74v113H1599V269.28c0-16.41,13.35-28.08,29.76-28.08s29.76,11.67,29.76,28.08v61.63h26.74v-65C1685.25,234.76,1661.94,214.46,1633.29,214.46Z"/><rect x="71.63" y="353.12" width="427.74" height="148.78"/><rect x="71.63" y="204.34" width="427.74" height="74.39"/><rect x="71.63" y="129.95" width="427.74" height="37.19"/><rect x="71.63" y="92.76" width="427.74" height="18.6"/><rect x="71.63" y="74.16" width="427.74" height="9.3"/></svg>