<svg id="Layer_1" data-name="Layer 1" xmlns="http://www.w3.org/2000/svg" viewBox="0 0 1080 1080"><defs><style>.cls-1{fill:#fff;}.cls-2{fill:#231f20;}</style></defs><rect class="cls-1" width="1080" height="1080"/><rect class="cls-2" x="73.73" y="802.59" width="932.54" height="196.89"/><rect class="cls-2" x="73.73" y="605.71" width="932.54" height="98.44"/><rect class="cls-2" x="73.73" y="507.26" width="932.54" height="49.22"/><rect class="cls-2" x="73.73" y="458.04" width="932.54" height="24.61"/><rect class="cls-2" x="73.73" y="433.43" width="932.54" height="12.31"/><path class="cls-2" d="M675.8,77.11c-12.56,0-22.07,5-28.2,13.45V80h-22v92.91h22V122.18c0-13.49,11-23.08,24.47-23.08s24.47,9.59,24.47,23.08v50.68h22V119.42C718.52,93.8,699.36,77.11,675.8,77.11Z"/><path class="cls-2" d="M341.47,77.11c-12.56,0-22.07,5-28.2,13.45V80h-22v92.91h22V126.4c0-17.05,11-27.3,24.47-27.3s23.08,9.59,23.08,23.08v12.38h23.37V119.42C384.19,93.8,365,77.11,341.47,77.11Z"/><path class="cls-2" d="M466.21,77.11a26,26,0,0,0-19,8.52,26,26,0,0,0-19-8.52A25.06,25.06,0,0,0,416.56,80H400.65v92.91h22.12V107.21a8.11,8.11,0,0,1,16.1-1.37h0v28.72h16.49V107.21h.13q0-.61,0-1.23a8.11,8.11,0,0,1,16.12,1.23v65.65h22V107.21C493.56,90.61,481.29,77.11,466.21,77.11Z"/><path class="cls-2" d="M583.71,86a43.4,43.4,0,0,0-25.92-8.91c-26.39,0-47.87,22.11-47.87,49.29s21.48,49.3,47.87,49.3c12,0,23-5.31,31.42-13.64v10.8H605.7V125h0v0l0,0V80h-22Zm-25.92,67.69c-14.29,0-25.92-12.25-25.92-27.31s11.63-27.3,25.92-27.3,25.93,12.25,25.93,27.3S572.09,153.71,557.79,153.71ZM605.62,125h-.18a.62.62,0,0,1,0-.13l.19.09Z"/><path class="cls-2" d="M124,77.11c-12.11,0-21.73,4.6-28.23,12.54V80h-22V215.42h22V163.16c6.5,7.94,16.12,12.54,28.23,12.54,25.12,0,45.56-18.52,45.56-49.3S149.07,77.11,124,77.11Zm-2.32,76.6c-14.27,0-25.89-12.25-25.89-27.31s11.62-27.3,25.89-27.3,25.89,12.25,25.89,27.3S135.91,153.71,121.63,153.71Z"/><path class="cls-2" d="M1006.27,100.4V80h-26.6V53.35h-22V80H940V100.4h17.74v47.81h0a24.66,24.66,0,0,0,24.63,24.63h11V152.25c-7.15,0-13.65-4.66-13.65-15V100.4Z"/><path class="cls-2" d="M231.46,77.11a49.3,49.3,0,0,0,0,98.59c19.25,0,29.79-10,38.38-16.47l-12.8-17s-11,11.51-25.58,11.51a24.94,24.94,0,0,1-15.66-5.57l54.33-31.37,5.5-3.17C275.63,104.31,263.39,77.11,231.46,77.11Zm-25.83,51.51q-.09-1.09-.09-2.22c0-15.05,11.63-27.3,25.92-27.3a27.35,27.35,0,0,1,16.14,5.29Z"/><path class="cls-2" d="M780.81,77.11a49.3,49.3,0,0,0,0,98.59c19.25,0,29.79-10,38.38-16.47l-12.79-17s-11,11.51-25.59,11.51a24.94,24.94,0,0,1-15.66-5.57l54.34-31.37L825,113.6C825,104.31,812.75,77.11,780.81,77.11ZM755,128.62c-.05-.73-.09-1.47-.09-2.22,0-15.05,11.63-27.3,25.92-27.3A27.35,27.35,0,0,1,797,104.39Z"/><path class="cls-2" d="M888.32,77.11c-12.57,0-22.07,5-28.21,13.45V80h-22v92.91h22V122.18c0-13.49,11-23.08,24.47-23.08s24.47,9.59,24.47,23.08v50.68h22V119.42C931,93.8,911.87,77.11,888.32,77.11Z"/></svg>