<svg id="Layer_1" data-name="Layer 1" xmlns="http://www.w3.org/2000/svg" viewBox="0 0 1348.51 234.36"><defs><style>.cls-1{fill:#231f20;}</style></defs><rect class="cls-1" x="900.61" y="117.44" width="31.79" height="55.38"/><path class="cls-1" d="M818.05,117.44V96.54c0-37,18.52-62.18,52.58-62.18s61.78,24.14,61.78,61.18v21.9h-31.8V99.54c0-19.51-15.87-33.39-35.38-33.39S829.84,80,829.84,99.54v17.9H808.05"/><polyline class="cls-1" points="829.84 105.64 829.84 172.82 798.05 172.82 798.05 38.46 829.84 38.46 829.84 105.64"/><path class="cls-1" d="M334.59,117.44V96.54c0-37,18.52-62.18,52.58-62.18S449,58.5,449,95.54v21.9h-33.8V99.54c0-19.51-13.87-33.39-33.38-33.39S346.38,81,346.38,105.64v11.8H324.59"/><polyline class="cls-1" points="346.38 105.64 346.38 172.82 314.59 172.82 314.59 38.46 346.38 38.46 346.38 105.64"/><rect class="cls-1" x="1207.92" y="117.44" width="31.79" height="55.38"/><path class="cls-1" d="M1125.36,117.44V96.54c0-37,18.51-62.18,52.58-62.18s61.78,24.14,61.78,61.18v21.9h-31.8V99.54c0-19.51-15.87-33.39-35.38-33.39S1137.15,80,1137.15,99.54v17.9h-21.79"/><polyline class="cls-1" points="1137.15 105.64 1137.15 172.82 1105.36 172.82 1105.36 38.46 1137.15 38.46 1137.15 105.64"/><rect class="cls-1" x="528" y="75.9" width="23.85" height="41.54"/><polyline class="cls-1" points="504.54 105.64 504.54 172.82 472.74 172.82 472.74 38.46 504.54 38.46 504.54 105.64"/><path class="cls-1" d="M607.1,77.88v94.94H575.31V77.88a11.73,11.73,0,1,0-23.46,0H528c0-24,17.74-43.52,39.55-43.52S607.1,53.88,607.1,77.88Z"/><path class="cls-1" d="M472.93,77.88v94.94h31.8V77.88a11.73,11.73,0,0,1,23.46,0H552c0-24-17.75-43.52-39.55-43.52S472.93,53.88,472.93,77.88Z"/><path class="cls-1" d="M769.22,100.64c0,39.31-31.06,76.28-69.23,76.28s-69.23-32-69.23-71.28,31-71.28,69.23-71.28,69.23,37,69.23,76.28M700,66.15c-20.67,0-37.49,17.72-37.49,39.49s16.82,39.49,37.49,39.49,37.48-17.72,37.48-39.49S720.66,66.15,700,66.15Z"/><polygon class="cls-1" points="737.46 88.31 769.25 103.59 769.25 38.46 737.46 38.46 737.46 88.31"/><rect class="cls-1" x="745.41" y="103.59" width="23.85" height="69.23"/><polygon class="cls-1" points="31.8 115.89 0 103.59 0 38.46 31.8 38.46 31.8 115.89"/><rect class="cls-1" y="103.59" width="31.79" height="130.77"/><path class="cls-1" d="M31.83,105.64c0-21.77,16.8-39.49,37.44-39.49s37.43,17.72,37.43,39.49h31.8c0-44.5-29.55-71.28-65.88-71.28C38.55,34.36,18,59.5,18,96.54v18.2Z"/><path class="cls-1" d="M31.83,105.64c0,21.77,16.8,39.49,37.44,39.49s37.43-17.72,37.43-39.49h31.8c0,44.5-29.55,71.28-65.88,71.28C38.55,176.92,18,151.79,18,114.74V96.54Z"/><polygon class="cls-1" points="1310.05 121.28 1278.25 137.18 1278.25 0 1310.05 0 1310.05 121.28"/><rect class="cls-1" x="1291.07" y="38.46" width="57.44" height="29.57"/><rect class="cls-1" x="1252.61" y="38.46" width="70.26" height="29.57"/><path class="cls-1" d="M1310.05,121.28c0,15,9.4,21.75,19.74,21.75v29.79h-15.9a35.68,35.68,0,0,1-35.64-35.64"/><path class="cls-1" d="M228.09,34.36a71.28,71.28,0,0,0,0,142.56c27.83,0,43.07-14.48,55.49-23.81l-18.5-24.62s-15.93,16.64-37,16.64a36.14,36.14,0,0,1-22.66-8L284,91.71,292,87.12C292,73.69,274.27,34.36,228.09,34.36Zm-37.36,74.49c-.08-1.06-.13-2.13-.13-3.21,0-21.77,16.82-39.49,37.49-39.49a39.5,39.5,0,0,1,23.33,7.66Z"/><path class="cls-1" d="M1022.48,34.36a71.28,71.28,0,1,0,0,142.56c27.84,0,43.08-14.48,55.5-23.81l-18.5-24.62s-15.93,16.64-37,16.64a36.13,36.13,0,0,1-22.65-8l78.58-45.37,7.94-4.59C1086.35,73.69,1068.66,34.36,1022.48,34.36Zm-37.35,74.49c-.08-1.06-.13-2.13-.13-3.21,0-21.77,16.81-39.49,37.48-39.49a39.53,39.53,0,0,1,23.34,7.66Z"/></svg>